<svg xmlns="http://www.w3.org/2000/svg" x="0px" y="0px" width="100" height="100" viewBox="0,0,256,256">
<defs><linearGradient x1="10.925" y1="-11.924" x2="26.209" y2="30.068" gradientUnits="userSpaceOnUse" id="color-1_mhwmyz1eu7T5_gr1"><stop offset="0" stop-color="#1391ff"></stop><stop offset="1" stop-color="#0480df"></stop></linearGradient><linearGradient x1="20.213" y1="13.776" x2="36.727" y2="59.147" gradientUnits="userSpaceOnUse" id="color-2_mhwmyz1eu7T5_gr2"><stop offset="0" stop-color="#1391ff"></stop><stop offset="1" stop-color="#0480df"></stop></linearGradient><linearGradient x1="27.238" y1="2.443" x2="42.569" y2="44.566" gradientUnits="userSpaceOnUse" id="color-3_mhwmyz1eu7T5_gr3"><stop offset="0" stop-color="#1391ff"></stop><stop offset="1" stop-color="#0480df"></stop></linearGradient></defs><g fill="none" fill-rule="none" stroke="none" stroke-width="1" stroke-linecap="butt" stroke-linejoin="miter" stroke-miterlimit="10" stroke-dasharray="" stroke-dashoffset="0" font-family="none" font-weight="none" font-size="none" text-anchor="none" style="mix-blend-mode: normal"><g transform="scale(5.33333,5.33333)"><path d="M22.903,3.286c0.679,-0.381 1.515,-0.381 2.193,0c3.355,1.883 13.451,7.551 16.807,9.434c0.679,0.38 1.097,1.084 1.097,1.846c0,3.766 0,15.101 0,18.867c0,0.762 -0.418,1.466 -1.097,1.847c-3.355,1.883 -13.451,7.551 -16.807,9.434c-0.679,0.381 -1.515,0.381 -2.193,0c-3.355,-1.883 -13.451,-7.551 -16.807,-9.434c-0.678,-0.381 -1.096,-1.084 -1.096,-1.846c0,-3.766 0,-15.101 0,-18.867c0,-0.762 0.418,-1.466 1.097,-1.847c3.354,-1.883 13.452,-7.551 16.806,-9.434z" fill="url(#color-1_mhwmyz1eu7T5_gr1)" fill-rule="evenodd"></path><path d="M5.304,34.404c-0.266,-0.356 -0.304,-0.694 -0.304,-1.149c0,-3.744 0,-15.014 0,-18.759c0,-0.758 0.417,-1.458 1.094,-1.836c3.343,-1.872 13.405,-7.507 16.748,-9.38c0.677,-0.379 1.594,-0.371 2.271,0.008c3.343,1.872 13.371,7.459 16.714,9.331c0.27,0.152 0.476,0.335 0.66,0.576z" fill="url(#color-2_mhwmyz1eu7T5_gr2)" fill-rule="evenodd"></path><path d="M24,10c7.727,0 14,6.273 14,14c0,7.727 -6.273,14 -14,14c-7.727,0 -14,-6.273 -14,-14c0,-7.727 6.273,-14 14,-14zM24,17c3.863,0 7,3.136 7,7c0,3.863 -3.137,7 -7,7c-3.863,0 -7,-3.137 -7,-7c0,-3.864 3.136,-7 7,-7z" fill="#ffffff" fill-rule="evenodd"></path><path d="M42.485,13.205c0.516,0.483 0.506,1.211 0.506,1.784c0,3.795 -0.032,14.589 0.009,18.384c0.004,0.396 -0.127,0.813 -0.323,1.127l-19.084,-10.5z" fill="url(#color-3_mhwmyz1eu7T5_gr3)" fill-rule="evenodd"></path><path d="M38,20v2h2v1h-2v2h2v1h-2v2h-1v-2h-2v2h-1v-2h-2v-1h2v-2h-2v-1h2v-2h1v2h2v-2h1M35,25h2v-2h-2v2M39,19h-1h-1h-1h-1h-1h-1v1v1h-1h-1v1v1v1v1v1v1h1h1v1v1h1h1h1v-1v-1v1v1h1h1h1v-1v-1h1h1v-1v-1v-1h-1h-1h1h1v-1v-1v-1h-1h-1v-1v-1z" fill="#000000" fill-rule="nonzero" opacity="0.05"></path><path d="M38,20v2h2v1h-2v2h2v1h-2v2h-1v-2h-2v2h-1v-2h-2v-1h2v-2h-2v-1h2v-2h1v2h2v-2h1M35,25h2v-2h-2v2M38.5,19.5h-0.5h-1h-0.5v0.5v1.5h-1v-1.5v-0.5h-0.5h-1h-0.5v0.5v1.5h-1.5h-0.5v0.5v1v0.5h0.5h1.5v1h-1.5h-0.5v0.5v1v0.5h0.5h1.5v1.5v0.5h0.5h1h0.5v-0.5v-1.5h1v1.5v0.5h0.5h1h0.5v-0.5v-1.5h1.5h0.5v-0.5v-1v-0.5h-0.5h-1.5v-1h1.5h0.5v-0.5v-1v-0.5h-0.5h-1.5v-1.5v-0.5zM35.5,23.5h1v1h-1v-1z" fill="#000000" fill-rule="nonzero" opacity="0.07"></path><path d="M40,23v-1h-2v-2h-1v2h-2v-2h-1v2h-2v1h2v2h-2v1h2v2h1v-2h2v2h1v-2h2v-1h-2v-2zM37,25h-2v-2h2z" fill="#ffffff" fill-rule="nonzero"></path><g fill="#000000" fill-rule="nonzero"><path d="M24,10c5.128,0 9.602,2.771 12.041,6.887l-6.073,3.47c-1.231,-2.01 -3.441,-3.357 -5.968,-3.357c-3.864,0 -7,3.136 -7,7c0,3.863 3.137,7 7,7c2.57,0 4.812,-1.392 6.029,-3.459l6.132,3.374c-2.411,4.227 -6.951,7.085 -12.161,7.085c-7.727,0 -14,-6.273 -14,-14c0,-7.727 6.273,-14 14,-14M24,9c-8.271,0 -15,6.729 -15,15c0,8.271 6.729,15 15,15c5.367,0 10.36,-2.908 13.03,-7.59l0.503,-0.882l-0.89,-0.49l-6.132,-3.374l-0.851,-0.468l-0.493,0.837c-1.077,1.83 -3.057,2.967 -5.167,2.967c-3.308,0 -6,-2.692 -6,-6c0,-3.308 2.692,-6 6,-6c2.099,0 4.011,1.076 5.115,2.879l0.507,0.828l0.842,-0.481l6.073,-3.47l0.882,-0.504l-0.518,-0.874c-2.696,-4.551 -7.639,-7.378 -12.901,-7.378z" opacity="0.05"></path><path d="M24,10c5.128,0 9.602,2.771 12.041,6.887l-6.073,3.47c-1.231,-2.01 -3.441,-3.357 -5.968,-3.357c-3.864,0 -7,3.136 -7,7c0,3.863 3.137,7 7,7c2.57,0 4.812,-1.392 6.029,-3.459l6.132,3.374c-2.411,4.227 -6.951,7.085 -12.161,7.085c-7.727,0 -14,-6.273 -14,-14c0,-7.727 6.273,-14 14,-14M24,9.5c-7.995,0 -14.5,6.505 -14.5,14.5c0,7.995 6.505,14.5 14.5,14.5c5.188,0 10.014,-2.812 12.595,-7.337l0.252,-0.441l-0.445,-0.245l-6.132,-3.374l-0.425,-0.234l-0.246,0.418c-1.168,1.982 -3.313,3.213 -5.599,3.213c-3.584,0 -6.5,-2.916 -6.5,-6.5c0,-3.584 2.916,-6.5 6.5,-6.5c2.275,0 4.346,1.166 5.542,3.118l0.253,0.414l0.421,-0.241l6.073,-3.47l0.441,-0.252l-0.259,-0.437c-2.607,-4.399 -7.385,-7.132 -12.471,-7.132z" opacity="0.07"></path></g></g></g>
</svg>