<?xml version="1.0" encoding="UTF-8"?>
<svg xmlns="http://www.w3.org/2000/svg" xmlns:xlink="http://www.w3.org/1999/xlink" viewBox="0 0 250 250" width="250px" height="250px">
<g id="surface137996538">
<path style=" stroke:none;fill-rule:nonzero;fill:rgb(21.176471%,48.627451%,96.862745%);fill-opacity:1;" d="M 125 10 C 61.589844 10 10 61.585938 10 125 C 10 188.414062 61.589844 240 125 240 C 188.410156 240 240 188.414062 240 125 C 240 107.875 236.207031 91.621094 229.464844 77.003906 C 224.839844 84.558594 217.640625 90.371094 209.074219 93.15625 C 212.84375 103.074219 215 113.773438 215 125 C 215 174.625 174.625 215 125 215 C 75.375 215 35 174.625 35 125 C 35 75.375 75.375 35 125 35 C 138.5 35 151.261719 38.066406 162.761719 43.417969 C 166.136719 35.117188 172.402344 28.308594 180.300781 24.210938 C 163.882812 15.160156 145.035156 10 125 10 Z M 197.5 30 C 182.3125 30 170 42.3125 170 57.5 C 170 72.6875 182.3125 85 197.5 85 C 212.6875 85 225 72.6875 225 57.5 C 225 42.3125 212.6875 30 197.5 30 Z M 125 75 C 97.386719 75 75 97.386719 75 125 C 75 152.613281 97.386719 175 125 175 C 152.613281 175 175 152.613281 175 125 C 175 97.386719 152.613281 75 125 75 Z M 125 75 "/>
</g>
</svg>
